<svg xmlns="http://www.w3.org/2000/svg" viewBox="382 122 1201 1201">
  <title>Majalis</title>
  <defs>
    <linearGradient id="oro" x1="0" y1="0" x2="0" y2="1">
      <stop offset="0%" stop-color="#f8d581"/>
      <stop offset="45%" stop-color="#e0ba6c"/>
      <stop offset="100%" stop-color="#f2ce7c"/>
    </linearGradient>
  </defs>
  <path d="M 916.00,1099.00 C 917.83,1101.67 922.50,1106.83 927.00,1115.00 C 931.50,1123.17 938.17,1135.17 943.00,1148.00 C 947.83,1160.83 952.67,1176.83 956.00,1192.00 C 959.33,1207.17 961.83,1231.17 963.00,1239.00 C 962.50,1239.50 960.50,1241.50 960.00,1242.00 C 936.33,1242.00 841.67,1242.00 818.00,1242.00 C 817.50,1241.33 815.50,1238.67 815.00,1238.00 C 815.83,1234.17 818.00,1222.17 820.00,1215.00 C 822.00,1207.83 823.50,1202.33 827.00,1195.00 C 830.50,1187.67 836.67,1177.67 841.00,1171.00 C 845.33,1164.33 847.83,1160.83 853.00,1155.00 C 858.17,1149.17 861.50,1145.33 872.00,1136.00 C 882.50,1126.67 908.67,1105.17 916.00,1099.00 Z M 922.00,896.00 C 942.00,896.00 1022.00,896.00 1042.00,896.00 C 1042.33,896.33 1043.67,897.67 1044.00,898.00 C 1041.83,900.67 1035.17,907.67 1031.00,914.00 C 1026.83,920.33 1022.67,926.00 1019.00,936.00 C 1015.33,946.00 1010.83,963.00 1009.00,974.00 C 1007.17,985.00 1007.67,993.83 1008.00,1002.00 C 1008.33,1010.17 1009.33,1015.33 1011.00,1023.00 C 1012.67,1030.67 1015.33,1040.67 1018.00,1048.00 C 1020.67,1055.33 1025.50,1063.83 1027.00,1067.00 C 1023.50,1072.67 1012.83,1087.83 1006.00,1101.00 C 999.17,1114.17 989.83,1138.00 986.00,1146.00 C 982.17,1154.00 983.50,1148.50 983.00,1149.00 C 982.33,1148.50 979.67,1146.50 979.00,1146.00 C 976.33,1139.67 969.83,1121.17 963.00,1108.00 C 956.17,1094.83 942.17,1073.83 938.00,1067.00 C 939.67,1063.33 945.33,1052.33 948.00,1045.00 C 950.67,1037.67 952.50,1031.17 954.00,1023.00 C 955.50,1014.83 956.67,1003.83 957.00,996.00 C 957.33,988.17 956.67,982.33 956.00,976.00 C 955.33,969.67 954.83,965.00 953.00,958.00 C 951.17,951.00 948.17,941.33 945.00,934.00 C 941.83,926.67 938.00,919.83 934.00,914.00 C 930.00,908.17 923.17,901.50 921.00,899.00 C 921.17,898.50 921.83,896.50 922.00,896.00 Z M 910.00,689.00 C 910.67,689.67 910.67,687.17 914.00,693.00 C 917.33,698.83 924.83,712.67 930.00,724.00 C 935.17,735.33 940.17,745.33 945.00,761.00 C 949.83,776.67 956.17,804.33 959.00,818.00 C 961.83,831.67 961.67,836.00 962.00,843.00 C 962.33,850.00 961.17,857.17 961.00,860.00 C 948.50,860.17 899.83,861.00 886.00,861.00 C 872.17,861.00 879.33,860.17 878.00,860.00 C 877.67,859.50 876.33,857.50 876.00,857.00 C 876.17,850.67 875.50,834.67 877.00,819.00 C 878.50,803.33 881.50,780.33 885.00,763.00 C 888.50,745.67 893.83,727.33 898.00,715.00 C 902.17,702.67 908.00,693.33 910.00,689.00 Z M 1168.00,586.00 C 1168.17,587.00 1175.83,565.67 1169.00,592.00 C 1162.17,618.33 1135.00,716.33 1127.00,744.00 C 1119.00,771.67 1122.00,755.67 1121.00,758.00 C 1120.50,758.33 1118.50,759.67 1118.00,760.00 C 1117.50,759.50 1115.50,757.50 1115.00,757.00 C 1113.17,750.00 1108.17,727.83 1104.00,715.00 C 1099.83,702.17 1092.33,685.83 1090.00,680.00 C 1088.50,681.50 1084.83,683.67 1081.00,689.00 C 1077.17,694.33 1069.33,708.17 1067.00,712.00 C 1069.00,719.50 1075.83,742.83 1079.00,757.00 C 1082.17,771.17 1084.33,785.17 1086.00,797.00 C 1087.67,808.83 1088.50,817.83 1089.00,828.00 C 1089.50,838.17 1089.00,853.00 1089.00,858.00 C 1087.50,858.50 1094.17,860.67 1080.00,861.00 C 1065.83,861.33 1016.67,860.17 1004.00,860.00 C 1003.67,859.67 1002.33,858.33 1002.00,858.00 C 1002.33,853.33 1001.33,845.00 1004.00,830.00 C 1006.67,815.00 1013.67,783.67 1018.00,768.00 C 1022.33,752.33 1024.50,748.17 1030.00,736.00 C 1035.50,723.83 1043.50,707.50 1051.00,695.00 C 1058.50,682.50 1065.00,673.00 1075.00,661.00 C 1085.00,649.00 1099.83,633.33 1111.00,623.00 C 1122.17,612.67 1132.50,605.17 1142.00,599.00 C 1151.50,592.83 1163.67,588.17 1168.00,586.00 Z M 982.00,579.00 C 983.00,579.67 983.17,578.00 988.00,583.00 C 992.83,588.00 1002.83,598.17 1011.00,609.00 C 1019.17,619.83 1032.67,641.50 1037.00,648.00 C 1036.67,649.17 1039.67,646.67 1035.00,655.00 C 1030.33,663.33 1016.67,682.83 1009.00,698.00 C 1001.33,713.17 993.17,736.83 989.00,746.00 C 984.83,755.17 984.83,751.83 984.00,753.00 C 983.33,753.00 980.67,753.00 980.00,753.00 C 979.50,752.33 980.17,756.33 977.00,749.00 C 973.83,741.67 966.17,720.67 961.00,709.00 C 955.83,697.33 951.33,688.50 946.00,679.00 C 940.67,669.50 931.83,656.50 929.00,652.00 C 929.00,651.17 929.00,647.83 929.00,647.00 C 932.83,641.17 943.17,623.33 952.00,612.00 C 960.83,600.67 977.00,584.50 982.00,579.00 Z M 1439.00,647.00 C 1434.67,648.50 1421.50,652.17 1413.00,656.00 C 1404.50,659.83 1395.67,664.50 1388.00,670.00 C 1380.33,675.50 1373.17,681.83 1367.00,689.00 C 1360.83,696.17 1355.50,705.00 1351.00,713.00 C 1346.50,721.00 1343.33,727.67 1340.00,737.00 C 1336.67,746.33 1334.50,745.50 1331.00,769.00 C 1327.50,792.50 1322.17,856.17 1319.00,878.00 C 1315.83,899.83 1315.00,893.00 1312.00,900.00 C 1309.00,907.00 1305.67,913.83 1301.00,920.00 C 1296.33,926.17 1290.67,932.00 1284.00,937.00 C 1277.33,942.00 1271.00,946.17 1261.00,950.00 C 1251.00,953.83 1233.33,958.17 1224.00,960.00 C 1214.67,961.83 1208.17,960.83 1205.00,961.00 C 1204.83,960.50 1204.17,958.50 1204.00,958.00 C 1207.00,953.50 1216.67,940.17 1222.00,931.00 C 1227.33,921.83 1232.17,911.83 1236.00,903.00 C 1239.83,894.17 1229.67,934.17 1245.00,878.00 C 1260.33,821.83 1314.17,618.00 1328.00,566.00 C 1328.83,565.17 1332.17,561.83 1333.00,561.00 C 1338.67,562.83 1357.17,567.83 1367.00,572.00 C 1376.83,576.17 1384.17,580.50 1392.00,586.00 C 1399.83,591.50 1407.50,598.00 1414.00,605.00 C 1420.50,612.00 1426.83,621.00 1431.00,628.00 C 1435.17,635.00 1437.67,643.83 1439.00,647.00 Z M 631.00,561.00 C 631.83,561.33 635.17,562.67 636.00,563.00 C 650.17,615.83 705.17,822.67 721.00,880.00 C 736.83,937.33 727.50,898.83 731.00,907.00 C 734.50,915.17 737.17,920.67 742.00,929.00 C 746.83,937.33 757.00,952.33 760.00,957.00 C 759.83,957.67 759.17,960.33 759.00,961.00 C 753.50,960.33 734.83,958.67 726.00,957.00 C 717.17,955.33 713.33,954.17 706.00,951.00 C 698.67,947.83 689.33,943.50 682.00,938.00 C 674.67,932.50 666.83,924.17 662.00,918.00 C 657.17,911.83 655.67,907.50 653.00,901.00 C 650.33,894.50 648.00,888.50 646.00,879.00 C 644.00,869.50 642.17,857.00 641.00,844.00 C 639.83,831.00 640.33,814.17 639.00,801.00 C 637.67,787.83 635.17,775.00 633.00,765.00 C 630.83,755.00 629.67,750.50 626.00,741.00 C 622.33,731.50 615.83,716.83 611.00,708.00 C 606.17,699.17 602.67,694.33 597.00,688.00 C 591.33,681.67 585.17,675.67 577.00,670.00 C 568.83,664.33 556.50,657.83 548.00,654.00 C 539.50,650.17 529.67,648.17 526.00,647.00 C 528.33,642.33 533.83,627.83 540.00,619.00 C 546.17,610.17 556.17,600.33 563.00,594.00 C 569.83,587.67 573.33,585.33 581.00,581.00 C 588.67,576.67 600.67,571.33 609.00,568.00 C 617.33,564.67 627.33,562.17 631.00,561.00 Z M 477.00,677.00 C 477.17,677.33 477.83,678.67 478.00,679.00 C 485.83,679.83 513.67,681.83 525.00,684.00 C 536.33,686.17 538.67,687.67 546.00,692.00 C 553.33,696.33 562.50,703.17 569.00,710.00 C 575.50,716.83 580.50,724.33 585.00,733.00 C 589.50,741.67 593.33,753.00 596.00,762.00 C 598.67,771.00 599.50,773.17 601.00,787.00 C 602.50,800.83 603.50,829.17 605.00,845.00 C 606.50,860.83 607.67,870.83 610.00,882.00 C 612.33,893.17 615.83,903.67 619.00,912.00 C 622.17,920.33 624.00,924.50 629.00,932.00 C 634.00,939.50 642.83,950.67 649.00,957.00 C 655.17,963.33 659.33,965.83 666.00,970.00 C 672.67,974.17 680.50,978.50 689.00,982.00 C 697.50,985.50 703.00,988.33 717.00,991.00 C 731.00,993.67 758.67,995.67 773.00,998.00 C 787.33,1000.33 792.50,1001.33 803.00,1005.00 C 813.50,1008.67 823.33,1012.50 836.00,1020.00 C 848.67,1027.50 871.83,1045.00 879.00,1050.00 C 881.00,1046.83 888.50,1035.67 891.00,1031.00 C 893.50,1026.33 893.50,1023.50 894.00,1022.00 C 893.83,1021.33 893.17,1018.67 893.00,1018.00 C 889.83,1015.33 885.50,1009.83 874.00,1002.00 C 862.50,994.17 837.33,980.83 824.00,971.00 C 810.67,961.17 801.67,951.17 794.00,943.00 C 786.33,934.83 782.17,928.17 778.00,922.00 C 773.83,915.83 773.17,915.50 769.00,906.00 C 764.83,896.50 769.17,922.17 753.00,865.00 C 736.83,807.83 685.33,614.50 672.00,563.00 C 658.67,511.50 672.83,557.17 673.00,556.00 C 677.00,556.00 687.83,555.33 697.00,556.00 C 706.17,556.67 722.83,559.33 728.00,560.00 C 726.33,554.00 719.67,530.00 718.00,524.00 C 714.83,523.50 708.00,521.50 699.00,521.00 C 690.00,520.50 675.33,520.33 664.00,521.00 C 652.67,521.67 643.67,522.17 631.00,525.00 C 618.33,527.83 601.00,532.67 588.00,538.00 C 575.00,543.33 563.50,549.83 553.00,557.00 C 542.50,564.17 532.83,572.83 525.00,581.00 C 517.17,589.17 512.00,596.17 506.00,606.00 C 500.00,615.83 493.83,628.17 489.00,640.00 C 484.17,651.83 479.00,670.83 477.00,677.00 Z M 1213.00,420.00 C 1213.17,420.67 1219.17,404.17 1214.00,424.00 C 1208.83,443.83 1187.33,519.83 1182.00,539.00 C 1175.00,542.33 1150.33,553.67 1140.00,559.00 C 1129.67,564.33 1127.33,566.00 1120.00,571.00 C 1112.67,576.00 1105.50,580.83 1096.00,589.00 C 1086.50,597.17 1068.50,614.83 1063.00,620.00 C 1058.17,613.67 1042.83,592.67 1034.00,582.00 C 1025.17,571.33 1014.00,560.33 1010.00,556.00 C 1010.00,555.50 1010.00,553.50 1010.00,553.00 C 1013.67,550.17 1023.17,542.00 1032.00,536.00 C 1040.83,530.00 1052.33,522.83 1063.00,517.00 C 1073.67,511.17 1085.83,505.33 1096.00,501.00 C 1106.17,496.67 1119.33,492.67 1124.00,491.00 C 1125.67,487.50 1130.83,475.67 1134.00,470.00 C 1137.17,464.33 1139.83,461.00 1143.00,457.00 C 1146.17,453.00 1148.67,449.83 1153.00,446.00 C 1157.33,442.17 1162.83,437.67 1169.00,434.00 C 1175.17,430.33 1182.67,426.33 1190.00,424.00 C 1197.33,421.67 1209.17,420.67 1213.00,420.00 Z M 1092.00,464.00 C 1085.33,467.17 1065.50,475.67 1052.00,483.00 C 1038.50,490.33 1024.00,499.00 1011.00,508.00 C 998.00,517.00 986.00,526.17 974.00,537.00 C 962.00,547.83 948.50,562.33 939.00,573.00 C 929.50,583.67 925.33,588.67 917.00,601.00 C 908.67,613.33 897.33,631.00 889.00,647.00 C 880.67,663.00 873.33,679.33 867.00,697.00 C 860.67,714.67 853.67,743.67 851.00,753.00 C 850.00,753.83 846.00,757.17 845.00,758.00 C 844.33,756.83 844.67,762.00 841.00,751.00 C 837.33,740.00 830.50,719.17 823.00,692.00 C 815.50,664.83 800.50,605.33 796.00,588.00 C 796.50,587.67 798.50,586.33 799.00,586.00 C 803.50,588.50 817.83,595.83 826.00,601.00 C 834.17,606.17 840.83,611.17 848.00,617.00 C 855.17,622.83 865.50,632.83 869.00,636.00 C 869.50,635.67 869.50,637.83 872.00,634.00 C 874.50,630.17 881.50,618.00 884.00,613.00 C 886.50,608.00 886.50,605.50 887.00,604.00 C 883.17,600.83 872.67,591.50 864.00,585.00 C 855.33,578.50 848.50,572.67 835.00,565.00 C 821.50,557.33 791.67,543.33 783.00,539.00 C 778.50,523.33 761.33,464.67 756.00,445.00 C 750.67,425.33 751.83,425.00 751.00,421.00 C 751.33,420.67 752.67,419.33 753.00,419.00 C 755.00,419.33 757.83,418.50 765.00,421.00 C 772.17,423.50 786.83,428.50 796.00,434.00 C 805.17,439.50 814.33,448.33 820.00,454.00 C 825.67,459.67 826.33,461.83 830.00,468.00 C 833.67,474.17 840.00,487.17 842.00,491.00 C 848.83,493.67 871.67,502.00 883.00,507.00 C 894.33,512.00 900.50,515.50 910.00,521.00 C 919.50,526.50 935.00,536.83 940.00,540.00 C 944.00,536.00 960.00,520.00 964.00,516.00 C 957.50,511.50 939.67,497.33 925.00,489.00 C 910.33,480.67 884.67,470.33 876.00,466.00 C 867.33,461.67 873.50,463.50 873.00,463.00 C 873.50,458.83 874.67,444.83 876.00,438.00 C 877.33,431.17 879.00,426.83 881.00,422.00 C 883.00,417.17 884.00,414.33 888.00,409.00 C 892.00,403.67 899.67,394.83 905.00,390.00 C 910.33,385.17 907.33,386.83 920.00,380.00 C 932.67,373.17 970.17,354.17 981.00,349.00 C 991.83,343.83 974.00,343.67 985.00,349.00 C 996.00,354.33 1034.33,374.00 1047.00,381.00 C 1059.67,388.00 1056.67,387.33 1061.00,391.00 C 1065.33,394.67 1069.83,399.33 1073.00,403.00 C 1076.17,406.67 1077.50,408.17 1080.00,413.00 C 1082.50,417.83 1086.00,423.50 1088.00,432.00 C 1090.00,440.50 1091.33,458.67 1092.00,464.00 Z M 982.00,233.00 C 982.50,233.00 984.50,233.00 985.00,233.00 C 986.17,234.50 989.00,237.00 992.00,242.00 C 995.00,247.00 1000.33,256.83 1003.00,263.00 C 1005.67,269.17 1007.17,274.50 1008.00,279.00 C 1008.83,283.50 1008.50,287.00 1008.00,290.00 C 1007.50,293.00 1007.00,294.17 1005.00,297.00 C 1003.00,299.83 999.00,304.67 996.00,307.00 C 993.00,309.33 990.50,310.50 987.00,311.00 C 983.50,311.50 978.17,310.83 975.00,310.00 C 971.83,309.17 970.50,308.17 968.00,306.00 C 965.50,303.83 961.83,300.00 960.00,297.00 C 958.17,294.00 957.33,291.67 957.00,288.00 C 956.67,284.33 955.67,282.00 958.00,275.00 C 960.33,268.00 967.00,253.00 971.00,246.00 C 975.00,239.00 980.17,235.17 982.00,233.00 Z M 982.00,166.00 C 977.67,171.83 963.50,189.50 956.00,201.00 C 948.50,212.50 942.17,224.83 937.00,235.00 C 931.83,245.17 927.50,255.17 925.00,262.00 C 922.50,268.83 922.50,270.67 922.00,276.00 C 921.50,281.33 921.33,288.67 922.00,294.00 C 922.67,299.33 923.00,302.00 926.00,308.00 C 929.00,314.00 937.67,326.33 940.00,330.00 C 934.33,332.83 916.33,341.00 906.00,347.00 C 895.67,353.00 884.50,361.00 878.00,366.00 C 871.50,371.00 871.17,371.83 867.00,377.00 C 862.83,382.17 857.17,389.17 853.00,397.00 C 848.83,404.83 843.83,419.50 842.00,424.00 C 841.33,423.83 840.83,425.17 838.00,423.00 C 835.17,420.83 830.00,414.83 825.00,411.00 C 820.00,407.17 815.00,403.67 808.00,400.00 C 801.00,396.33 794.17,392.17 783.00,389.00 C 771.83,385.83 754.17,382.17 741.00,381.00 C 727.83,379.83 710.17,381.83 704.00,382.00 C 706.00,390.33 711.00,413.67 716.00,432.00 C 721.00,450.33 713.33,416.33 734.00,492.00 C 754.67,567.67 821.67,819.00 840.00,886.00 C 858.33,953.00 843.33,892.67 844.00,894.00 C 846.83,894.83 854.17,895.83 861.00,899.00 C 867.83,902.17 878.33,908.00 885.00,913.00 C 891.67,918.00 896.17,922.50 901.00,929.00 C 905.83,935.50 910.67,942.83 914.00,952.00 C 917.33,961.17 920.17,973.17 921.00,984.00 C 921.83,994.83 920.33,1008.17 919.00,1017.00 C 917.67,1025.83 915.50,1030.67 913.00,1037.00 C 910.50,1043.33 909.50,1047.17 904.00,1055.00 C 898.50,1062.83 889.00,1075.17 880.00,1084.00 C 871.00,1092.83 858.67,1100.50 850.00,1108.00 C 841.33,1115.50 834.17,1122.33 828.00,1129.00 C 821.83,1135.67 818.00,1140.50 813.00,1148.00 C 808.00,1155.50 801.83,1166.50 798.00,1174.00 C 794.17,1181.50 792.67,1185.17 790.00,1193.00 C 787.33,1200.83 784.00,1211.50 782.00,1221.00 C 780.00,1230.50 778.67,1240.83 778.00,1250.00 C 777.33,1259.17 778.00,1271.67 778.00,1276.00 C 781.67,1276.33 732.00,1277.83 800.00,1278.00 C 868.00,1278.17 1121.67,1277.17 1186.00,1277.00 C 1186.17,1272.33 1187.83,1259.67 1187.00,1249.00 C 1186.17,1238.33 1183.33,1223.17 1181.00,1213.00 C 1178.67,1202.83 1176.83,1197.33 1173.00,1188.00 C 1169.17,1178.67 1163.67,1166.50 1158.00,1157.00 C 1152.33,1147.50 1146.67,1139.67 1139.00,1131.00 C 1131.33,1122.33 1120.33,1112.33 1112.00,1105.00 C 1103.67,1097.67 1092.83,1090.00 1089.00,1087.00 C 1088.50,1087.00 1086.50,1087.00 1086.00,1087.00 C 1084.50,1088.67 1079.83,1093.33 1077.00,1097.00 C 1074.17,1100.67 1070.50,1106.17 1069.00,1109.00 C 1067.50,1111.83 1068.17,1113.17 1068.00,1114.00 C 1074.67,1120.00 1097.67,1139.17 1108.00,1150.00 C 1118.33,1160.83 1124.00,1169.00 1130.00,1179.00 C 1136.00,1189.00 1140.83,1199.83 1144.00,1210.00 C 1147.17,1220.17 1148.17,1235.00 1149.00,1240.00 C 1148.50,1240.33 1146.50,1241.67 1146.00,1242.00 C 1122.67,1242.00 1029.33,1242.00 1006.00,1242.00 C 1005.33,1241.50 1002.67,1239.50 1002.00,1239.00 C 1002.83,1232.83 1005.00,1212.83 1007.00,1202.00 C 1009.00,1191.17 1011.17,1183.67 1014.00,1174.00 C 1016.83,1164.33 1020.00,1153.83 1024.00,1144.00 C 1028.00,1134.17 1033.50,1123.33 1038.00,1115.00 C 1042.50,1106.67 1045.00,1102.33 1051.00,1094.00 C 1057.00,1085.67 1065.67,1074.17 1074.00,1065.00 C 1082.33,1055.83 1091.00,1047.00 1101.00,1039.00 C 1111.00,1031.00 1124.83,1022.33 1134.00,1017.00 C 1143.17,1011.67 1148.83,1009.67 1156.00,1007.00 C 1163.17,1004.33 1163.17,1003.33 1177.00,1001.00 C 1190.83,998.67 1223.67,995.67 1239.00,993.00 C 1254.33,990.33 1260.00,988.17 1269.00,985.00 C 1278.00,981.83 1285.17,978.67 1293.00,974.00 C 1300.83,969.33 1308.67,964.17 1316.00,957.00 C 1323.33,949.83 1331.17,941.00 1337.00,931.00 C 1342.83,921.00 1347.33,909.67 1351.00,897.00 C 1354.67,884.33 1357.33,869.17 1359.00,855.00 C 1360.67,840.83 1359.83,825.33 1361.00,812.00 C 1362.17,798.67 1364.00,785.50 1366.00,775.00 C 1368.00,764.50 1370.00,757.17 1373.00,749.00 C 1376.00,740.83 1379.33,733.33 1384.00,726.00 C 1388.67,718.67 1396.00,710.17 1401.00,705.00 C 1406.00,699.83 1409.83,697.67 1414.00,695.00 C 1418.17,692.33 1419.00,691.33 1426.00,689.00 C 1433.00,686.67 1445.83,682.67 1456.00,681.00 C 1466.17,679.33 1481.83,679.33 1487.00,679.00 C 1487.17,678.50 1487.83,676.50 1488.00,676.00 C 1485.83,669.67 1480.50,650.67 1475.00,638.00 C 1469.50,625.33 1462.50,611.17 1455.00,600.00 C 1447.50,588.83 1438.17,578.83 1430.00,571.00 C 1421.83,563.17 1415.67,558.83 1406.00,553.00 C 1396.33,547.17 1384.00,540.67 1372.00,536.00 C 1360.00,531.33 1345.83,527.50 1334.00,525.00 C 1322.17,522.50 1312.50,521.67 1301.00,521.00 C 1289.50,520.33 1273.83,520.50 1265.00,521.00 C 1256.17,521.50 1250.83,523.50 1248.00,524.00 C 1247.17,525.83 1244.67,529.00 1243.00,535.00 C 1241.33,541.00 1238.83,555.83 1238.00,560.00 C 1242.83,559.33 1258.00,556.67 1267.00,556.00 C 1276.00,555.33 1287.83,556.00 1292.00,556.00 C 1292.17,557.17 1305.83,513.33 1293.00,563.00 C 1280.17,612.67 1230.00,799.50 1215.00,854.00 C 1200.00,908.50 1208.17,878.00 1203.00,890.00 C 1197.83,902.00 1192.33,914.17 1184.00,926.00 C 1175.67,937.83 1162.33,952.00 1153.00,961.00 C 1143.67,970.00 1138.33,973.17 1128.00,980.00 C 1117.67,986.83 1103.17,992.83 1091.00,1002.00 C 1078.83,1011.17 1061.00,1029.50 1055.00,1035.00 C 1054.33,1034.50 1051.67,1032.50 1051.00,1032.00 C 1050.17,1029.17 1047.17,1023.17 1046.00,1015.00 C 1044.83,1006.83 1043.50,992.67 1044.00,983.00 C 1044.50,973.33 1047.17,963.67 1049.00,957.00 C 1050.83,950.33 1052.33,947.83 1055.00,943.00 C 1057.67,938.17 1061.00,932.83 1065.00,928.00 C 1069.00,923.17 1073.17,918.50 1079.00,914.00 C 1084.83,909.50 1093.17,904.17 1100.00,901.00 C 1106.83,897.83 1116.67,896.00 1120.00,895.00 C 1121.00,893.00 1102.50,968.50 1126.00,883.00 C 1149.50,797.50 1238.50,465.50 1261.00,382.00 C 1253.67,382.00 1230.00,380.83 1217.00,382.00 C 1204.00,383.17 1193.00,386.00 1183.00,389.00 C 1173.00,392.00 1167.00,394.17 1157.00,400.00 C 1147.00,405.83 1128.67,420.00 1123.00,424.00 C 1120.83,418.83 1113.83,400.50 1110.00,393.00 C 1106.17,385.50 1104.17,383.83 1100.00,379.00 C 1095.83,374.17 1090.83,368.83 1085.00,364.00 C 1079.17,359.17 1075.00,355.83 1065.00,350.00 C 1055.00,344.17 1031.67,332.50 1025.00,329.00 C 1026.83,326.67 1033.00,320.50 1036.00,315.00 C 1039.00,309.50 1041.83,302.83 1043.00,296.00 C 1044.17,289.17 1043.50,279.67 1043.00,274.00 C 1042.50,268.33 1042.83,269.17 1040.00,262.00 C 1037.17,254.83 1031.00,240.83 1026.00,231.00 C 1021.00,221.17 1016.00,212.50 1010.00,203.00 C 1004.00,193.50 994.67,180.17 990.00,174.00 C 985.33,167.83 983.33,167.33 982.00,166.00 Z" fill="url(#oro)" fill-rule="evenodd"/>
</svg>
