<svg xmlns="http://www.w3.org/2000/svg" viewBox="-2 1415 1970 472">
  <path d="M 616.00,1561.00 C 616.67,1561.33 619.33,1562.67 620.00,1563.00 C 626.67,1578.83 653.33,1642.17 660.00,1658.00 C 659.83,1658.67 659.17,1661.33 659.00,1662.00 C 645.00,1661.83 589.00,1661.17 575.00,1661.00 C 577.17,1655.00 581.17,1641.67 588.00,1625.00 C 594.83,1608.33 611.33,1571.67 616.00,1561.00 Z M 1102.00,1551.00 C 1102.83,1552.33 1100.00,1540.83 1107.00,1559.00 C 1114.00,1577.17 1137.83,1643.17 1144.00,1660.00 C 1143.67,1660.33 1142.33,1661.67 1142.00,1662.00 C 1127.83,1662.00 1071.17,1662.00 1057.00,1662.00 C 1056.83,1661.17 1056.17,1657.83 1056.00,1657.00 C 1063.67,1639.33 1094.33,1568.67 1102.00,1551.00 Z M 1304.00,1469.00 C 1304.17,1469.50 1304.83,1471.50 1305.00,1472.00 C 1306.67,1472.17 1311.83,1472.17 1315.00,1473.00 C 1318.17,1473.83 1321.00,1474.67 1324.00,1477.00 C 1327.00,1479.33 1330.83,1483.00 1333.00,1487.00 C 1335.17,1491.00 1336.33,1460.00 1337.00,1501.00 C 1337.67,1542.00 1338.17,1691.33 1337.00,1733.00 C 1335.83,1774.67 1332.67,1746.67 1330.00,1751.00 C 1327.33,1755.33 1324.50,1757.00 1321.00,1759.00 C 1317.50,1761.00 1311.00,1762.33 1309.00,1763.00 C 1308.83,1763.50 1308.17,1765.50 1308.00,1766.00 C 1314.00,1766.83 1331.67,1768.33 1344.00,1771.00 C 1356.33,1773.67 1369.00,1777.33 1382.00,1782.00 C 1395.00,1786.67 1398.67,1788.00 1422.00,1799.00 C 1445.33,1810.00 1498.83,1837.67 1522.00,1848.00 C 1545.17,1858.33 1549.00,1857.67 1561.00,1861.00 C 1573.00,1864.33 1583.00,1866.67 1594.00,1868.00 C 1605.00,1869.33 1615.67,1870.17 1627.00,1869.00 C 1638.33,1867.83 1651.33,1864.83 1662.00,1861.00 C 1672.67,1857.17 1682.17,1852.17 1691.00,1846.00 C 1699.83,1839.83 1710.33,1828.67 1715.00,1824.00 C 1719.67,1819.33 1718.33,1819.00 1719.00,1818.00 C 1718.50,1817.00 1716.50,1813.00 1716.00,1812.00 C 1713.00,1813.50 1705.00,1818.50 1698.00,1821.00 C 1691.00,1823.50 1684.17,1826.00 1674.00,1827.00 C 1663.83,1828.00 1649.17,1827.83 1637.00,1827.00 C 1624.83,1826.17 1624.33,1827.33 1601.00,1822.00 C 1577.67,1816.67 1528.83,1804.17 1497.00,1795.00 C 1465.17,1785.83 1425.50,1772.67 1410.00,1767.00 C 1394.50,1761.33 1405.50,1763.50 1404.00,1761.00 C 1402.50,1758.50 1401.50,1795.67 1401.00,1752.00 C 1400.50,1708.33 1400.33,1543.33 1401.00,1499.00 C 1401.67,1454.67 1402.83,1489.67 1405.00,1486.00 C 1407.17,1482.33 1411.17,1479.17 1414.00,1477.00 C 1416.83,1474.83 1419.17,1473.83 1422.00,1473.00 C 1424.83,1472.17 1429.50,1472.17 1431.00,1472.00 C 1431.33,1471.50 1432.67,1469.50 1433.00,1469.00 C 1411.50,1469.00 1325.50,1469.00 1304.00,1469.00 Z M 943.00,1469.00 C 921.50,1469.00 835.50,1469.00 814.00,1469.00 C 814.17,1469.50 814.83,1471.50 815.00,1472.00 C 817.00,1472.17 823.67,1472.17 827.00,1473.00 C 830.33,1473.83 832.17,1474.67 835.00,1477.00 C 837.83,1479.33 841.83,1483.00 844.00,1487.00 C 846.17,1491.00 847.50,1455.00 848.00,1501.00 C 848.50,1547.00 848.00,1715.00 847.00,1763.00 C 846.00,1811.00 844.17,1781.50 842.00,1789.00 C 839.83,1796.50 836.83,1802.50 834.00,1808.00 C 831.17,1813.50 828.83,1817.33 825.00,1822.00 C 821.17,1826.67 816.33,1832.00 811.00,1836.00 C 805.67,1840.00 796.00,1844.33 793.00,1846.00 C 792.83,1846.33 792.17,1847.67 792.00,1848.00 C 792.50,1848.50 794.50,1850.50 795.00,1851.00 C 797.00,1851.33 801.67,1852.83 807.00,1853.00 C 812.33,1853.17 820.67,1852.83 827.00,1852.00 C 833.33,1851.17 839.50,1849.83 845.00,1848.00 C 850.50,1846.17 853.33,1845.50 860.00,1841.00 C 866.67,1836.50 878.83,1827.00 885.00,1821.00 C 891.17,1815.00 893.67,1810.50 897.00,1805.00 C 900.33,1799.50 902.67,1795.33 905.00,1788.00 C 907.33,1780.67 909.83,1809.83 911.00,1761.00 C 912.17,1712.17 911.17,1541.00 912.00,1495.00 C 912.83,1449.00 913.83,1488.17 916.00,1485.00 C 918.17,1481.83 923.50,1477.50 925.00,1476.00 C 927.83,1475.33 939.17,1472.67 942.00,1472.00 C 942.17,1471.50 942.83,1469.50 943.00,1469.00 Z M 1915.00,1467.00 C 1904.33,1466.17 1867.67,1462.83 1851.00,1462.00 C 1834.33,1461.17 1823.17,1461.67 1815.00,1462.00 C 1806.83,1462.33 1807.00,1462.83 1802.00,1464.00 C 1797.00,1465.17 1791.00,1466.50 1785.00,1469.00 C 1779.00,1471.50 1771.50,1475.17 1766.00,1479.00 C 1760.50,1482.83 1756.00,1487.17 1752.00,1492.00 C 1748.00,1496.83 1744.67,1502.17 1742.00,1508.00 C 1739.33,1513.83 1737.17,1518.83 1736.00,1527.00 C 1734.83,1535.17 1734.67,1549.83 1735.00,1557.00 C 1735.33,1564.17 1736.00,1564.83 1738.00,1570.00 C 1740.00,1575.17 1743.00,1582.33 1747.00,1588.00 C 1751.00,1593.67 1757.33,1599.67 1762.00,1604.00 C 1766.67,1608.33 1763.17,1606.50 1775.00,1614.00 C 1786.83,1621.50 1817.83,1639.17 1833.00,1649.00 C 1848.17,1658.83 1857.67,1665.83 1866.00,1673.00 C 1874.33,1680.17 1879.00,1685.33 1883.00,1692.00 C 1887.00,1698.67 1888.83,1706.00 1890.00,1713.00 C 1891.17,1720.00 1890.67,1728.17 1890.00,1734.00 C 1889.33,1739.83 1888.00,1743.50 1886.00,1748.00 C 1884.00,1752.50 1882.17,1756.33 1878.00,1761.00 C 1873.83,1765.67 1865.83,1772.50 1861.00,1776.00 C 1856.17,1779.50 1853.83,1780.33 1849.00,1782.00 C 1844.17,1783.67 1839.83,1785.33 1832.00,1786.00 C 1824.17,1786.67 1811.00,1787.00 1802.00,1786.00 C 1793.00,1785.00 1785.83,1783.17 1778.00,1780.00 C 1770.17,1776.83 1761.50,1771.83 1755.00,1767.00 C 1748.50,1762.17 1743.83,1757.83 1739.00,1751.00 C 1734.17,1744.17 1728.83,1732.83 1726.00,1726.00 C 1723.17,1719.17 1722.67,1716.17 1722.00,1710.00 C 1721.33,1703.83 1721.00,1696.33 1722.00,1689.00 C 1723.00,1681.67 1725.83,1672.17 1728.00,1666.00 C 1730.17,1659.83 1733.83,1654.33 1735.00,1652.00 C 1734.83,1651.50 1734.17,1649.50 1734.00,1649.00 C 1733.50,1649.00 1731.50,1649.00 1731.00,1649.00 C 1729.17,1651.50 1723.50,1657.33 1720.00,1664.00 C 1716.50,1670.67 1712.00,1682.50 1710.00,1689.00 C 1708.00,1695.50 1708.17,1696.67 1708.00,1703.00 C 1707.83,1709.33 1708.00,1720.17 1709.00,1727.00 C 1710.00,1733.83 1710.67,1736.83 1714.00,1744.00 C 1717.33,1751.17 1724.00,1763.17 1729.00,1770.00 C 1734.00,1776.83 1737.83,1780.33 1744.00,1785.00 C 1750.17,1789.67 1759.00,1794.67 1766.00,1798.00 C 1773.00,1801.33 1778.50,1803.17 1786.00,1805.00 C 1793.50,1806.83 1802.50,1808.33 1811.00,1809.00 C 1819.50,1809.67 1827.17,1810.00 1837.00,1809.00 C 1846.83,1808.00 1860.17,1805.83 1870.00,1803.00 C 1879.83,1800.17 1888.50,1796.00 1896.00,1792.00 C 1903.50,1788.00 1909.17,1784.00 1915.00,1779.00 C 1920.83,1774.00 1926.50,1767.83 1931.00,1762.00 C 1935.50,1756.17 1938.83,1752.00 1942.00,1744.00 C 1945.17,1736.00 1948.67,1723.50 1950.00,1714.00 C 1951.33,1704.50 1951.00,1695.33 1950.00,1687.00 C 1949.00,1678.67 1946.50,1670.50 1944.00,1664.00 C 1941.50,1657.50 1939.83,1654.33 1935.00,1648.00 C 1930.17,1641.67 1920.67,1631.50 1915.00,1626.00 C 1909.33,1620.50 1920.17,1627.33 1901.00,1615.00 C 1881.83,1602.67 1818.17,1564.00 1800.00,1552.00 C 1781.83,1540.00 1794.17,1546.67 1792.00,1543.00 C 1789.83,1539.33 1787.50,1535.33 1787.00,1530.00 C 1786.50,1524.67 1787.83,1515.83 1789.00,1511.00 C 1790.17,1506.17 1791.67,1504.17 1794.00,1501.00 C 1796.33,1497.83 1799.17,1494.67 1803.00,1492.00 C 1806.83,1489.33 1811.00,1486.83 1817.00,1485.00 C 1823.00,1483.17 1830.50,1481.17 1839.00,1481.00 C 1847.50,1480.83 1860.17,1482.17 1868.00,1484.00 C 1875.83,1485.83 1880.67,1488.17 1886.00,1492.00 C 1891.33,1495.83 1896.67,1501.17 1900.00,1507.00 C 1903.33,1512.83 1905.00,1523.67 1906.00,1527.00 C 1906.67,1527.33 1909.33,1528.67 1910.00,1529.00 C 1911.00,1520.50 1915.17,1488.33 1916.00,1478.00 C 1916.83,1467.67 1915.17,1468.83 1915.00,1467.00 Z M 632.00,1459.00 C 629.67,1464.83 638.67,1447.50 618.00,1494.00 C 597.33,1540.50 528.83,1694.33 508.00,1738.00 C 487.17,1781.67 497.17,1752.17 493.00,1756.00 C 488.83,1759.83 486.67,1759.83 483.00,1761.00 C 479.33,1762.17 473.00,1762.67 471.00,1763.00 C 471.00,1763.50 471.00,1765.50 471.00,1766.00 C 486.17,1766.17 546.83,1766.83 562.00,1767.00 C 561.83,1766.33 561.17,1763.67 561.00,1763.00 C 559.33,1762.67 554.00,1762.50 551.00,1761.00 C 548.00,1759.50 544.33,1755.17 543.00,1754.00 C 542.50,1752.00 540.50,1744.00 540.00,1742.00 C 543.83,1732.50 558.67,1695.00 563.00,1685.00 C 567.33,1675.00 565.50,1682.50 566.00,1682.00 C 582.50,1681.83 648.50,1681.17 665.00,1681.00 C 665.83,1681.50 669.17,1683.50 670.00,1684.00 C 674.00,1693.50 690.00,1730.33 694.00,1741.00 C 698.00,1751.67 694.50,1745.67 694.00,1748.00 C 693.50,1750.33 692.67,1752.83 691.00,1755.00 C 689.33,1757.17 686.83,1759.67 684.00,1761.00 C 681.17,1762.33 675.67,1762.67 674.00,1763.00 C 674.00,1763.67 674.00,1766.33 674.00,1767.00 C 696.33,1767.00 785.67,1767.00 808.00,1767.00 C 808.00,1766.33 808.00,1763.67 808.00,1763.00 C 805.83,1762.67 799.17,1762.33 795.00,1761.00 C 790.83,1759.67 787.33,1758.50 783.00,1755.00 C 778.67,1751.50 793.50,1789.00 769.00,1740.00 C 744.50,1691.00 658.17,1507.50 636.00,1461.00 C 635.33,1460.67 632.67,1459.33 632.00,1459.00 Z M 1675.00,1454.00 C 1670.33,1455.33 1655.83,1460.00 1647.00,1462.00 C 1638.17,1464.00 1639.00,1464.83 1622.00,1466.00 C 1605.00,1467.17 1561.50,1468.00 1545.00,1469.00 C 1528.50,1470.00 1530.00,1470.33 1523.00,1472.00 C 1516.00,1473.67 1508.50,1475.83 1503.00,1479.00 C 1497.50,1482.17 1493.50,1486.33 1490.00,1491.00 C 1486.50,1495.67 1483.33,1501.83 1482.00,1507.00 C 1480.67,1512.17 1480.83,1516.83 1482.00,1522.00 C 1483.17,1527.17 1486.67,1534.17 1489.00,1538.00 C 1491.33,1541.83 1493.17,1543.00 1496.00,1545.00 C 1498.83,1547.00 1502.33,1548.83 1506.00,1550.00 C 1509.67,1551.17 1514.50,1551.83 1518.00,1552.00 C 1521.50,1552.17 1525.50,1551.17 1527.00,1551.00 C 1527.17,1550.33 1527.83,1547.67 1528.00,1547.00 C 1525.17,1545.67 1515.00,1541.83 1511.00,1539.00 C 1507.00,1536.17 1505.17,1531.50 1504.00,1530.00 C 1503.67,1526.83 1501.83,1515.50 1502.00,1511.00 C 1502.17,1506.50 1502.83,1506.00 1505.00,1503.00 C 1507.17,1500.00 1510.50,1495.67 1515.00,1493.00 C 1519.50,1490.33 1521.33,1488.17 1532.00,1487.00 C 1542.67,1485.83 1571.17,1486.17 1579.00,1486.00 C 1579.33,1486.33 1580.67,1487.67 1581.00,1488.00 C 1581.17,1528.50 1582.33,1688.17 1582.00,1731.00 C 1581.67,1773.83 1580.33,1741.33 1579.00,1745.00 C 1577.67,1748.67 1576.67,1750.33 1574.00,1753.00 C 1571.33,1755.67 1566.67,1759.33 1563.00,1761.00 C 1559.33,1762.67 1553.83,1762.67 1552.00,1763.00 C 1552.17,1763.67 1552.83,1766.33 1553.00,1767.00 C 1573.83,1767.00 1657.17,1767.00 1678.00,1767.00 C 1677.67,1766.33 1676.33,1763.67 1676.00,1763.00 C 1674.33,1762.83 1669.00,1762.83 1666.00,1762.00 C 1663.00,1761.17 1660.67,1760.00 1658.00,1758.00 C 1655.33,1756.00 1652.17,1753.17 1650.00,1750.00 C 1647.83,1746.83 1645.83,1782.17 1645.00,1739.00 C 1644.17,1695.83 1645.00,1532.33 1645.00,1491.00 C 1646.67,1488.17 1649.83,1479.17 1655.00,1474.00 C 1660.17,1468.83 1672.50,1462.33 1676.00,1460.00 C 1676.17,1459.50 1676.83,1457.50 1677.00,1457.00 C 1676.67,1456.50 1675.33,1454.50 1675.00,1454.00 Z M 997.00,1455.00 C 996.83,1455.83 996.17,1459.17 996.00,1460.00 C 996.33,1460.33 997.67,1461.67 998.00,1462.00 C 1000.50,1461.33 1007.67,1458.67 1013.00,1458.00 C 1018.33,1457.33 1024.17,1457.00 1030.00,1458.00 C 1035.83,1459.00 1041.33,1459.83 1048.00,1464.00 C 1054.67,1468.17 1064.50,1477.17 1070.00,1483.00 C 1075.50,1488.83 1078.17,1493.67 1081.00,1499.00 C 1083.83,1504.33 1086.00,1512.33 1087.00,1515.00 C 1070.67,1552.67 1008.00,1700.50 989.00,1741.00 C 970.00,1781.50 976.67,1754.67 973.00,1758.00 C 969.33,1761.33 970.33,1760.17 967.00,1761.00 C 963.67,1761.83 955.33,1762.67 953.00,1763.00 C 952.83,1763.50 952.17,1765.50 952.00,1766.00 C 952.67,1766.33 940.67,1767.83 956.00,1768.00 C 971.33,1768.17 1029.33,1767.17 1044.00,1767.00 C 1043.83,1766.33 1043.17,1763.67 1043.00,1763.00 C 1041.17,1762.50 1033.83,1760.50 1032.00,1760.00 C 1030.50,1758.17 1024.50,1750.83 1023.00,1749.00 C 1023.00,1747.33 1019.67,1749.00 1023.00,1739.00 C 1026.33,1729.00 1038.67,1698.67 1043.00,1689.00 C 1047.33,1679.33 1048.00,1682.33 1049.00,1681.00 C 1065.67,1681.00 1132.33,1681.00 1149.00,1681.00 C 1149.83,1681.50 1153.17,1683.50 1154.00,1684.00 C 1158.17,1694.33 1171.50,1729.83 1179.00,1746.00 C 1186.50,1762.17 1192.00,1770.33 1199.00,1781.00 C 1206.00,1791.67 1212.00,1800.33 1221.00,1810.00 C 1230.00,1819.67 1242.33,1831.33 1253.00,1839.00 C 1263.67,1846.67 1275.67,1852.00 1285.00,1856.00 C 1294.33,1860.00 1302.50,1861.50 1309.00,1863.00 C 1315.50,1864.50 1316.83,1864.83 1324.00,1865.00 C 1331.17,1865.17 1344.67,1864.83 1352.00,1864.00 C 1359.33,1863.17 1362.67,1861.83 1368.00,1860.00 C 1373.33,1858.17 1381.33,1854.17 1384.00,1853.00 C 1384.33,1852.33 1385.67,1849.67 1386.00,1849.00 C 1381.50,1849.00 1369.00,1850.83 1359.00,1849.00 C 1349.00,1847.17 1334.17,1841.67 1326.00,1838.00 C 1317.83,1834.33 1316.33,1832.67 1310.00,1827.00 C 1303.67,1821.33 1296.00,1814.33 1288.00,1804.00 C 1280.00,1793.67 1270.67,1780.67 1262.00,1765.00 C 1253.33,1749.33 1253.33,1751.17 1236.00,1710.00 C 1218.67,1668.83 1173.17,1554.00 1158.00,1518.00 C 1142.83,1482.00 1149.50,1501.17 1145.00,1494.00 C 1140.50,1486.83 1137.00,1481.50 1131.00,1475.00 C 1125.00,1468.50 1115.50,1459.83 1109.00,1455.00 C 1102.50,1450.17 1097.67,1448.33 1092.00,1446.00 C 1086.33,1443.67 1084.00,1441.83 1075.00,1441.00 C 1066.00,1440.17 1047.67,1440.17 1038.00,1441.00 C 1028.33,1441.83 1023.83,1443.67 1017.00,1446.00 C 1010.17,1448.33 1000.33,1453.50 997.00,1455.00 Z M 16.00,1443.00 C 16.50,1443.67 18.50,1446.33 19.00,1447.00 C 20.17,1446.83 22.33,1445.50 26.00,1446.00 C 29.67,1446.50 34.50,1446.83 41.00,1450.00 C 47.50,1453.17 57.00,1458.17 65.00,1465.00 C 73.00,1471.83 80.83,1480.33 89.00,1491.00 C 97.17,1501.67 109.83,1522.67 114.00,1529.00 C 109.17,1564.67 90.33,1706.33 85.00,1743.00 C 79.67,1779.67 84.83,1746.00 82.00,1749.00 C 79.17,1752.00 70.33,1759.00 68.00,1761.00 C 65.50,1761.33 55.50,1762.67 53.00,1763.00 C 53.00,1763.67 53.00,1766.33 53.00,1767.00 C 67.67,1766.83 126.33,1766.17 141.00,1766.00 C 140.50,1765.50 138.50,1763.50 138.00,1763.00 C 136.83,1762.83 133.33,1762.83 131.00,1762.00 C 128.67,1761.17 126.33,1760.67 124.00,1758.00 C 121.67,1755.33 118.17,1748.00 117.00,1746.00 C 117.33,1740.83 117.00,1731.33 119.00,1715.00 C 121.00,1698.67 126.33,1669.50 129.00,1648.00 C 131.67,1626.50 133.50,1597.67 135.00,1586.00 C 136.50,1574.33 137.50,1579.33 138.00,1578.00 C 138.67,1578.50 123.67,1548.50 142.00,1581.00 C 160.33,1613.50 230.33,1741.00 248.00,1773.00 C 248.83,1772.83 252.17,1772.17 253.00,1772.00 C 253.67,1769.33 254.17,1763.33 257.00,1756.00 C 259.83,1748.67 254.83,1755.50 270.00,1728.00 C 285.17,1700.50 334.17,1614.33 348.00,1591.00 C 361.83,1567.67 352.17,1588.50 353.00,1588.00 C 355.50,1604.17 363.67,1659.50 368.00,1685.00 C 372.33,1710.50 375.33,1726.67 379.00,1741.00 C 382.67,1755.33 385.17,1761.00 390.00,1771.00 C 394.83,1781.00 402.17,1793.00 408.00,1801.00 C 413.83,1809.00 419.33,1813.83 425.00,1819.00 C 430.67,1824.17 433.50,1827.33 442.00,1832.00 C 450.50,1836.67 466.83,1843.83 476.00,1847.00 C 485.17,1850.17 488.17,1850.33 497.00,1851.00 C 505.83,1851.67 519.67,1852.17 529.00,1851.00 C 538.33,1849.83 549.00,1845.17 553.00,1844.00 C 552.83,1843.33 552.17,1840.67 552.00,1840.00 C 549.67,1840.17 543.17,1841.33 538.00,1841.00 C 532.83,1840.67 528.00,1840.67 521.00,1838.00 C 514.00,1835.33 504.33,1831.83 496.00,1825.00 C 487.67,1818.17 477.83,1806.83 471.00,1797.00 C 464.17,1787.17 459.83,1779.00 455.00,1766.00 C 450.17,1753.00 450.83,1765.00 442.00,1719.00 C 433.17,1673.00 409.83,1532.83 402.00,1490.00 C 394.17,1447.17 396.17,1466.67 395.00,1462.00 C 394.17,1462.33 390.83,1463.67 390.00,1464.00 C 370.17,1498.17 291.50,1634.17 271.00,1669.00 C 250.50,1703.83 267.67,1672.33 267.00,1673.00 C 266.33,1672.33 277.33,1694.83 263.00,1669.00 C 248.67,1643.17 198.00,1548.33 181.00,1518.00 C 164.00,1487.67 167.33,1495.67 161.00,1487.00 C 154.67,1478.33 149.67,1472.33 143.00,1466.00 C 136.33,1459.67 127.83,1453.33 121.00,1449.00 C 114.17,1444.67 108.00,1442.33 102.00,1440.00 C 96.00,1437.67 93.67,1436.17 85.00,1435.00 C 76.33,1433.83 59.17,1432.67 50.00,1433.00 C 40.83,1433.33 35.67,1435.33 30.00,1437.00 C 24.33,1438.67 18.33,1442.00 16.00,1443.00 Z" fill="#fff" fill-rule="evenodd"/>
</svg>
